<svg width="124" height="67" viewBox="0 0 124 67" fill="none" xmlns="http://www.w3.org/2000/svg">
<g clip-path="url(#clip0_311_255)">
<path d="M56.2938 15.806C56.5632 15.7997 56.8348 15.6974 57.0332 15.5052L57.1836 15.3591C57.5575 14.9957 57.5345 14.4506 57.1335 14.1394L53.6224 11.4306L53.5973 11.6248L53.3299 13.6152L53.3216 13.6736L53.3049 13.8073L55.6275 15.5992C55.8155 15.7454 56.0557 15.8123 56.2938 15.806Z" fill="#181818"/>
<path d="M57.1342 14.1404C57.5353 14.4516 57.5582 14.9967 57.1844 15.3601L57.034 15.5063C56.8356 15.6984 56.564 15.8007 56.2946 15.807C56.0565 15.8133 55.8163 15.7464 55.6283 15.6003L53.3057 13.8083L53.2889 13.9232L55.5635 15.6796C55.7641 15.8342 56.0251 15.9156 56.2988 15.9073C56.4471 15.9031 56.5933 15.8738 56.729 15.8195C56.8732 15.7611 56.9985 15.6796 57.105 15.5773L57.2554 15.4311C57.3598 15.3308 57.4371 15.216 57.4872 15.0907C57.5374 14.9695 57.5582 14.8421 57.552 14.7126C57.5436 14.5894 57.5102 14.4704 57.4517 14.3597C57.3911 14.2448 57.3055 14.1446 57.1969 14.0631L53.6378 11.3167L53.6231 11.4316L57.1342 14.1404Z" fill="#181818"/>
<path d="M48.7375 17.8742C48.5767 17.7551 48.4534 17.5964 48.3783 17.4147C48.3678 17.3938 48.3615 17.3729 48.3553 17.352C48.3532 17.3499 48.3532 17.3479 48.3511 17.3458C48.3448 17.3708 48.3386 17.398 48.3323 17.4272L46.536 25.8292C46.3773 26.5748 46.7052 27.3288 47.2712 27.5147L47.5323 27.6003C47.6033 27.6233 47.6744 27.6358 47.7475 27.64C48.2383 27.665 48.7062 27.2369 48.844 26.5853L50.4106 19.2547L50.3709 19.2087L50.0889 18.8787L49.6357 18.5404L48.7375 17.8742Z" fill="#181818"/>
<path d="M47.7469 27.6369C47.6738 27.6327 47.6027 27.6202 47.5317 27.5972L47.2706 27.5116C46.7046 27.3257 46.3767 26.5717 46.5354 25.8261L48.3317 17.4241C48.338 17.3949 48.3442 17.3677 48.3505 17.3427C48.3275 17.2737 48.3129 17.2027 48.3024 17.1317C48.2732 17.2153 48.2481 17.3009 48.2293 17.3907L46.4331 25.7927C46.3913 25.9932 46.3788 26.1979 46.3976 26.4005C46.4164 26.5947 46.4644 26.7806 46.5396 26.9518C46.6127 27.121 46.7109 27.2672 46.8278 27.3863C46.9511 27.5095 47.091 27.5972 47.2414 27.6473L47.5025 27.7329C47.5798 27.7559 47.6591 27.7726 47.7385 27.7768C48.0038 27.7893 48.269 27.6828 48.4883 27.4761C48.597 27.3716 48.693 27.2463 48.7703 27.1022C48.8497 26.9539 48.9082 26.791 48.9458 26.6156L50.4977 19.3539L50.4099 19.2516L48.8434 26.5822C48.7056 27.2338 48.2377 27.6619 47.7469 27.6369Z" fill="#181818"/>
<path d="M47.6345 17.0107L47.6742 16.712V16.7037C47.6449 16.806 47.6303 16.9105 47.6324 17.017C47.6324 17.0211 47.6324 17.0232 47.6324 17.0253C47.6324 17.0211 47.6324 17.0149 47.6345 17.0107Z" fill="#181818"/>
<path d="M50.4346 7.86725C50.2425 7.88396 49.902 7.86307 48.9997 8.51886C47.5167 9.59862 46.9277 10.1166 45.9042 11.094C45.5533 11.6704 44.7596 14.8199 44.7179 15.4569C44.5988 15.8975 44.8641 16.3486 45.311 16.4656L45.5366 16.5241C45.616 16.545 45.6975 16.5554 45.7768 16.5533C46.1382 16.5429 46.464 16.3027 46.5622 15.9414L47.6191 12.0589L49.2127 10.952L48.4399 16.7246L48.3981 17.0232C48.4023 17.1444 48.4274 17.2634 48.4733 17.3762C48.5402 17.5349 48.6488 17.6811 48.7992 17.7939L49.6973 18.4601L50.3615 18.953L52.7134 20.7011L53.3191 24.2202C53.4089 24.7402 53.8747 25.1057 54.3969 25.0911C54.447 25.089 54.4951 25.0848 54.5452 25.0765L54.6726 25.0556C55.2512 24.9595 55.6439 24.4207 55.5457 23.8505L54.8543 19.8364C54.8167 19.6213 54.7165 19.4334 54.5723 19.2872C54.518 19.2141 54.4512 19.1472 54.3739 19.0908L52.6654 17.821L53.1708 14.0471L53.2314 13.6002L53.4967 11.6098L53.5489 11.2235C53.551 11.2068 53.5531 11.188 53.5551 11.1713C53.5719 10.8789 53.5886 9.88474 52.8763 9.00757C52.8262 8.94909 51.8842 7.8213 50.585 7.85681C50.5349 7.8589 50.4848 7.86099 50.4346 7.86725Z" fill="#181818"/>
<path d="M44.7129 16.1312C44.7735 16.2356 44.8528 16.3254 44.9489 16.3985C45.0492 16.4758 45.162 16.5301 45.2852 16.5614L45.5087 16.622C45.5964 16.6449 45.6883 16.6554 45.7781 16.6533C45.8784 16.6491 45.9787 16.6303 46.0726 16.5969C46.1645 16.5635 46.2523 16.5175 46.3296 16.457C46.4925 16.3338 46.6073 16.1625 46.6617 15.9662L47.7081 12.1192L49.0804 11.1668L48.3389 16.7034L48.3368 16.7118L48.2971 17.0104C48.2971 17.0146 48.2971 17.0209 48.2971 17.025C48.2971 17.0626 48.2992 17.0981 48.3034 17.1337C48.3138 17.2047 48.3284 17.2757 48.3514 17.3446C48.3535 17.3467 48.3535 17.3488 48.3556 17.3509C48.3619 17.3717 48.3681 17.3926 48.3786 17.4135C48.4538 17.5952 48.577 17.7539 48.7378 17.873L49.636 18.5392L50.0892 18.8775L50.3002 19.0342L50.3419 19.0655L50.4318 19.1323L52.6186 20.7572L53.216 24.2366C53.264 24.5102 53.4102 24.7588 53.6296 24.9342C53.8468 25.1075 54.1204 25.1994 54.4003 25.1911C54.4525 25.189 54.5089 25.1848 54.5611 25.1765L54.6885 25.1535C54.8431 25.1284 54.9893 25.0741 55.1209 24.9906C55.2483 24.9112 55.3569 24.811 55.4446 24.6877C55.5324 24.5666 55.595 24.433 55.6305 24.2888C55.666 24.1385 55.6702 23.986 55.6452 23.8336L54.9538 19.8195C54.9141 19.5939 54.8097 19.3871 54.6509 19.2221C54.5904 19.1428 54.5173 19.0718 54.4358 19.0112L52.7732 17.7748L53.2703 14.0594L53.2891 13.9195L53.3058 13.8046L53.3225 13.6709L53.3309 13.6124L53.5982 11.6221L53.6233 11.4279L53.6379 11.313L53.64 11.2942L53.6484 11.2357L53.6546 11.1898L53.6567 11.1835C53.6567 11.1835 53.6567 11.1814 53.6567 11.1793C53.6567 11.1773 53.6567 11.1773 53.6567 11.1752C53.6713 10.8849 53.6484 10.5779 53.5878 10.2876C53.4813 9.78423 53.2682 9.33102 52.9549 8.94465C52.9445 8.93212 52.6855 8.61676 52.2573 8.31392C52.0171 8.14475 51.7685 8.01318 51.52 7.9192C51.4949 7.91084 51.4719 7.90249 51.4469 7.89414C51.2735 7.87325 51.1064 7.83357 50.9414 7.77509C50.8203 7.75838 50.6991 7.75421 50.5801 7.75629L50.5842 7.85654C51.8834 7.82104 52.8254 8.94883 52.8755 9.0073C53.5878 9.88447 53.5711 10.8786 53.5544 11.171C53.5523 11.1877 53.5502 11.2065 53.5481 11.2232L53.4959 11.6096L53.2306 13.5999L53.17 14.0469L52.6646 17.8208L54.3731 19.0906C54.4504 19.147 54.5173 19.2138 54.5716 19.2869C54.7157 19.4331 54.8159 19.6211 54.8535 19.8362L55.5449 23.8503C55.6431 24.4204 55.2504 24.9593 54.6718 25.0553L54.5444 25.0762C54.4943 25.0846 54.4462 25.0887 54.3961 25.0908C53.8739 25.1054 53.4082 24.74 53.3183 24.2199L52.7126 20.7008L50.3607 18.9527L49.6965 18.4598L48.7984 17.7936C48.648 17.6808 48.5394 17.5346 48.4726 17.3759C48.4266 17.2631 48.4015 17.1441 48.3974 17.023L48.4391 16.7243L49.212 10.9517L47.6183 12.0586L46.5614 15.9411C46.4632 16.3024 46.1374 16.5426 45.776 16.553C45.6967 16.5551 45.6152 16.5447 45.5358 16.5238L45.3103 16.4653C44.8633 16.3484 44.598 15.8973 44.7171 15.4566C44.7588 14.8196 45.5526 11.6701 45.9035 11.0937C46.9269 10.1163 47.5159 9.59835 48.9989 8.5186C49.9012 7.86281 50.2417 7.88369 50.4338 7.86699C50.484 7.86072 50.5341 7.85863 50.5842 7.85654L50.5801 7.75629C50.5278 7.75838 50.4756 7.76047 50.4234 7.76674C50.4109 7.76674 50.3963 7.76883 50.3795 7.76883C50.2793 7.77718 50.1247 7.78971 49.8929 7.87952C49.6234 7.98394 49.3122 8.16773 48.9383 8.43923C48.1927 8.98015 47.6768 9.37906 47.2131 9.76752C46.7452 10.1602 46.3379 10.5382 45.8324 11.0227C45.8262 11.029 45.8199 11.0352 45.8157 11.0436C45.7301 11.1856 45.6152 11.4738 45.4795 11.8999C45.3604 12.2674 45.2267 12.7269 45.0951 13.2282C44.8361 14.2118 44.6398 15.1182 44.6168 15.4399C44.5855 15.5568 44.5792 15.678 44.5959 15.797C44.6126 15.9161 44.6523 16.0288 44.7129 16.1312Z" fill="#181818"/>
<path d="M51.7621 7.80588C52.9234 7.77455 53.8362 6.82428 53.8028 5.68605C53.7694 4.54573 52.8023 3.64977 51.6431 3.68109C50.4838 3.71451 49.5711 4.66269 49.6024 5.80301C49.6358 6.94124 50.6029 7.83929 51.7621 7.80588Z" fill="#181818"/>
<path d="M49.6015 5.79862C49.5702 4.6583 50.4829 3.71012 51.6422 3.67671C52.8014 3.64538 53.7684 4.54134 53.8019 5.68166C53.8353 6.8199 52.9225 7.77016 51.7612 7.80149C50.602 7.83491 49.6349 6.93685 49.6015 5.79862ZM51.7654 7.90174C52.062 7.89338 52.3502 7.82864 52.6176 7.70751C52.8766 7.59264 53.1063 7.42974 53.3027 7.22506C53.5011 7.02039 53.6515 6.78648 53.7559 6.52542C53.8624 6.25391 53.9126 5.96988 53.9042 5.67749C53.8959 5.38719 53.829 5.10524 53.7058 4.84209C53.5888 4.58729 53.4217 4.35964 53.2149 4.1675C53.0061 3.97327 52.7659 3.82499 52.5006 3.72265C52.227 3.61823 51.9367 3.5681 51.6401 3.57646C51.3414 3.58481 51.0552 3.64956 50.7879 3.77069C50.5289 3.88764 50.297 4.04846 50.1007 4.25313C49.9044 4.4578 49.7519 4.6938 49.6495 4.95487C49.5409 5.22428 49.4929 5.50832 49.5012 5.80071C49.5096 6.0931 49.5743 6.37505 49.6976 6.6382C49.8166 6.89299 49.9816 7.11855 50.1905 7.31278C50.3973 7.50492 50.6375 7.65529 50.9028 7.75554C50.9153 7.76181 50.9278 7.76598 50.9403 7.77016C51.1054 7.82864 51.2725 7.86832 51.4458 7.88921C51.5523 7.89965 51.6568 7.90591 51.7654 7.90174Z" fill="#181818"/>
<mask id="mask0_311_255" style="mask-type:luminance" maskUnits="userSpaceOnUse" x="40" y="14" width="37" height="21">
<path d="M40.3214 14.733H76.8527V34.0412H40.3214V14.733Z" fill="white"/>
</mask>
<g mask="url(#mask0_311_255)">
<path d="M73.5902 15.1644V14.7655H71.6435C71.6351 14.7655 71.6289 14.7718 71.6289 14.7801V17.3573C71.6289 17.3657 71.6226 17.3719 71.6143 17.3719H66.4197C66.4113 17.3719 66.405 17.3782 66.405 17.3866V19.9617C66.405 19.97 66.3988 19.9763 66.3904 19.9763H61.1958C61.1875 19.9763 61.1812 19.9826 61.1812 19.9909V22.6057C61.1812 22.6141 61.1749 22.6203 61.1666 22.6203H55.972C55.9636 22.6203 55.9574 22.6266 55.9574 22.635V25.2268C55.9574 25.2351 55.9511 25.2414 55.9427 25.2414H50.7481C50.7398 25.2414 50.7335 25.2477 50.7335 25.256V27.8395C50.7335 27.8479 50.7273 27.8541 50.7189 27.8541H45.5598C45.5515 27.8541 45.5452 27.8604 45.5452 27.8687V30.4522C45.5452 30.4606 45.5368 30.4668 45.5285 30.4668H40.336C40.3276 30.4668 40.3214 30.4731 40.3214 30.4815V34.0256C40.3214 34.034 40.3276 34.0403 40.336 34.0403H42.1803C42.1886 34.0403 42.197 34.034 42.197 34.0256V31.4401C42.197 31.4317 42.2033 31.4255 42.2116 31.4255H45.5452V31.4275H47.4041C47.4125 31.4275 47.4188 31.4192 47.4188 31.4108V28.8274C47.4188 28.819 47.4271 28.8127 47.4355 28.8127H52.5946C52.6029 28.8127 52.6092 28.8065 52.6092 28.7981V26.2146C52.6092 26.2063 52.6154 26.2 52.6238 26.2H55.9574V26.1938H57.8184C57.8267 26.1938 57.833 26.1875 57.833 26.1791V23.5936C57.833 23.5852 57.8393 23.579 57.8476 23.579H61.1666C61.1749 23.579 61.1812 23.5727 61.1812 23.5643C61.1812 23.556 61.1875 23.5497 61.1958 23.5497H63.0422C63.0506 23.5497 63.0569 23.5435 63.0569 23.5351V20.9495C63.0569 20.9412 63.0631 20.9349 63.0715 20.9349H66.405V20.9433H68.2661C68.2744 20.9433 68.2807 20.937 68.2807 20.9287V18.3452C68.2807 18.3368 68.287 18.3306 68.2953 18.3306H71.6289V18.3389H73.4899C73.4983 18.3389 73.5045 18.3327 73.5045 18.3243V15.7387C73.5045 15.7304 73.5108 15.7241 73.5192 15.7241H76.8381C76.8465 15.7241 76.8527 15.7179 76.8527 15.7095V14.7801C76.8527 14.7718 76.8465 14.7655 76.8381 14.7655H74.6408V15.1644H73.5902Z" fill="#181818"/>
</g>
<path d="M74.6385 8.69035V15.1668H73.5879V7.69205C73.5879 7.83615 73.6485 7.97191 73.755 8.07007C74.0391 8.32695 74.3336 8.53371 74.6385 8.69035Z" fill="#181818"/>
<mask id="mask1_311_255" style="mask-type:luminance" maskUnits="userSpaceOnUse" x="73" y="2" width="11" height="8">
<path d="M73.5714 2.16367H83.994V9.08704H73.5714V2.16367Z" fill="white"/>
</mask>
<g mask="url(#mask1_311_255)">
<path d="M83.9962 3.36489V8.12458C83.9962 8.32925 83.8729 8.51513 83.6808 8.59658C83.4886 8.67803 83.2672 8.64044 83.1127 8.5026C81.7968 7.30798 80.4934 7.80713 78.9854 8.38773C78.1812 8.69683 77.3478 9.01428 76.4873 9.06858C76.4038 9.07276 76.3223 9.07485 76.2408 9.07485C75.6685 9.07485 75.138 8.94954 74.6409 8.69056C74.3359 8.53393 74.0414 8.32717 73.7574 8.07028C73.6508 7.97212 73.5903 7.83637 73.5903 7.69226V3.79721C73.5903 3.59881 73.7072 3.41711 73.891 3.33148C74.0769 3.24794 74.2942 3.27509 74.4508 3.40249C75.75 4.45927 77.0533 3.83898 78.5635 3.11845C79.3634 2.73834 80.1927 2.34153 81.049 2.20995C82.0829 2.05123 82.9852 2.29976 83.8061 2.97017C83.9273 3.06833 83.9962 3.21243 83.9962 3.36489Z" fill="#0093FF"/>
</g>
<path d="M11.6765 49.1582C10.4003 49.1582 9.30373 49.6323 8.3847 50.5784C7.46567 51.5266 7.00616 52.6627 7.00616 53.9868C7.00616 55.3402 7.46567 56.491 8.3847 57.437C9.30373 58.379 10.4003 58.8489 11.6765 58.8489C12.2885 58.8489 12.8712 58.7737 13.4226 58.6233C13.9741 58.4688 14.3751 58.3142 14.6257 58.1638L14.9766 57.9299L17.2742 62.6416C17.0946 62.7711 16.8439 62.9319 16.5223 63.1261C16.2048 63.3162 15.4779 63.5751 14.3417 63.903C13.2054 64.2372 11.9856 64.4043 10.6823 64.4043C7.79569 64.4043 5.2621 63.3914 3.0794 61.3634C0.894623 59.3313 -0.195679 56.8982 -0.195679 54.062C-0.195679 51.205 0.894623 48.7489 3.0794 46.6938C5.2621 44.6387 7.79569 43.6112 10.6823 43.6112C11.9856 43.6112 13.1845 43.7657 14.2832 44.0707C15.3798 44.3777 16.1588 44.6847 16.6225 44.9896L17.2742 45.4491L14.9766 50.0772C14.1286 49.4653 13.03 49.1582 11.6765 49.1582Z" fill="#0093FF"/>
<path d="M17.8068 63.8279V44.1793H24.5825V47.0196H24.6661C24.7162 46.9152 24.7956 46.7857 24.9083 46.6353C25.0253 46.4808 25.276 46.2135 25.6603 45.8334C26.0446 45.4491 26.4498 45.1045 26.8801 44.7975C27.3145 44.4925 27.8764 44.2189 28.5677 43.9788C29.257 43.7344 29.9588 43.6112 30.6732 43.6112C31.4126 43.6112 32.1394 43.7156 32.8538 43.9203C33.5723 44.1208 34.0944 44.3255 34.4245 44.5301L34.9675 44.8309L32.1269 50.5784C31.2851 49.8662 30.1134 49.5091 28.6095 49.5091C27.7908 49.5091 27.0848 49.6887 26.4958 50.0438C25.9109 50.4009 25.4953 50.8353 25.2509 51.347C25.0107 51.8545 24.8373 52.2889 24.7329 52.6502C24.6326 53.0073 24.5825 53.2851 24.5825 53.4856V63.8279H17.8068Z" fill="#0093FF"/>
<path d="M35.9948 61.3968C34.1567 59.3919 33.2377 56.9358 33.2377 54.0286C33.2377 51.1173 34.1567 48.6528 35.9948 46.6353C37.837 44.6199 40.1742 43.6112 43.0044 43.6112C45.6111 43.6112 47.7541 44.4278 49.4376 46.0589V44.1793H56.2217V63.8279H49.5212V61.6057H49.4376C47.7541 63.4728 45.6111 64.4043 43.0044 64.4043C40.1742 64.4043 37.837 63.4018 35.9948 61.3968ZM41.7596 50.6954C40.8781 51.5642 40.4395 52.6753 40.4395 54.0286C40.4395 55.3778 40.8593 56.4805 41.7011 57.3368C42.547 58.1952 43.6582 58.6233 45.0347 58.6233C46.3652 58.6233 47.4575 58.1889 48.3097 57.3201C49.1661 56.4513 49.5964 55.3527 49.5964 54.0203C49.5964 52.6732 49.1557 51.5642 48.2763 50.6954C47.3949 49.8266 46.315 49.3922 45.0347 49.3922C43.7355 49.3922 42.6452 49.8266 41.7596 50.6954Z" fill="#0093FF"/>
<path d="M64.9937 44.216V53.5642C64.9937 55.5023 65.2861 56.8807 65.8709 57.6994C66.4558 58.5181 67.45 58.9274 68.8536 58.9274C70.2614 58.9274 71.2598 58.5181 71.8446 57.6994C72.4336 56.8807 72.7302 55.5023 72.7302 53.5642V44.216H79.506V55.2099C79.506 58.4805 78.6559 60.8363 76.9578 62.2774C75.2576 63.7205 72.5569 64.4411 68.8536 64.4411C65.1545 64.4411 62.4559 63.7205 60.7578 62.2774C59.0576 60.8363 58.2096 58.4805 58.2096 55.2099V44.216H64.9937Z" fill="#0093FF"/>
<path d="M101.371 54.9476H87.1258C87.1258 56.3239 87.5707 57.3431 88.4626 58.0051C89.3586 58.6693 90.3299 58.9992 91.3784 58.9992C92.475 58.9992 93.3418 58.8551 93.9767 58.5648C94.6159 58.2704 95.3469 57.6877 96.1657 56.8189L101.062 59.2749C99.023 62.6959 95.6268 64.4043 90.8771 64.4043C87.9132 64.4043 85.3713 63.3914 83.2492 61.3634C81.1312 59.3313 80.0743 56.8857 80.0743 54.0286C80.0743 51.1674 81.1312 48.7155 83.2492 46.6771C85.3713 44.6346 87.9132 43.6112 90.8771 43.6112C93.9893 43.6112 96.5249 44.5113 98.48 46.3095C100.435 48.1098 101.413 50.6787 101.413 54.0203C101.413 54.4839 101.398 54.793 101.371 54.9476ZM87.318 51.1883H94.7871C94.6305 50.1691 94.2274 49.388 93.5757 48.8408C92.924 48.2894 92.0885 48.0137 91.0693 48.0137C89.9435 48.0137 89.0495 48.3103 88.3874 48.8993C87.7232 49.484 87.3681 50.2484 87.318 51.1883Z" fill="#0093FF"/>
<path d="M102.369 63.826V44.1774H109.145V46.2492H109.228C110.987 44.4907 112.863 43.6094 114.851 43.6094C115.825 43.6094 116.79 43.7389 117.742 43.9937C118.699 44.2443 119.618 44.6411 120.499 45.1799C121.385 45.7146 122.099 46.4748 122.646 47.4606C123.198 48.4422 123.473 49.5825 123.473 50.8857V63.826H116.689V52.7236C116.689 51.7002 116.363 50.8063 115.712 50.0419C115.064 49.2734 114.218 48.8891 113.172 48.8891C112.146 48.8891 111.219 49.2859 110.39 50.0754C109.558 50.8669 109.145 51.7503 109.145 52.7236V63.826H102.369Z" fill="#0093FF"/>
</g>
<defs>
<clipPath id="clip0_311_255">
<rect width="123.517" height="62.5547" fill="white" transform="translate(0 2)"/>
</clipPath>
</defs>
</svg>
